<svg xmlns="http://www.w3.org/2000/svg" viewBox="0 0 141.73 46" width="120" height="40">
  <rect fill="#1434CB" width="141.73" height="46" rx="4"/>
  <path fill="#FFFFFF" d="M62.3,31.8l-3.5-17.5h-5.6l3.5,17.5h5.6ZM51.2,14.3l-5.3,12.1l-0.6-3l0,0l-2-10.3c-0.3-1.5-1.5-1.9-2.8-1.9h-9.3l-0.1,0.4c1.9,0.4,4,1,6,2l5,17.1h5.9l9-17.5H51.2ZM96.5,31.8l4.5-17.5h-5.3l-2.8,12.7l-0.3-0.9l-2.8-11.8h-5.6l4.3,16.8c0.1,0.4,0.1,0.7,0,1h5.6C93.8,32.1,95.2,32.1,96.5,31.8ZM82.1,24.1c0-4.6-6.4-4.9-6.4-7c0-0.6,0.6-1.3,2-1.5c0.7-0.1,2.6-0.2,4.7,0.8l0.8-3.9c-1.1-0.4-2.7-0.8-4.5-0.8c-4.8,0-8.1,2.5-8.1,6.2c0,2.7,2.4,4.2,4.2,5.1c1.9,0.9,2.5,1.5,2.5,2.3c0,1.2-1.5,1.8-2.8,1.8c-2.4,0-3.7-0.3-5.6-1.2l-1,4.6c1.3,0.6,3.6,1.1,6.1,1.1C77.8,31.6,82.1,29.1,82.1,24.1Z"/>
</svg>
